<?xml version="1.0" standalone="no"?>
<!DOCTYPE svg PUBLIC "-//W3C//DTD SVG 20010904//EN"
 "http://www.w3.org/TR/2001/REC-SVG-20010904/DTD/svg10.dtd">
<svg version="1.0" xmlns="http://www.w3.org/2000/svg"
 width="1065.000000pt" height="1280.000000pt" viewBox="0 0 1065.000000 1280.000000"
 preserveAspectRatio="xMidYMid meet">
<g transform="translate(0.000000,1280.000000) scale(0.100000,-0.100000)"
fill="#000000" stroke="none">
<path d="M5205 12673 c-15 -60 -63 -234 -107 -388 -44 -154 -99 -352 -122
-440 -43 -158 -140 -412 -197 -512 -50 -88 -113 -148 -212 -204 -230 -130
-316 -217 -381 -390 -46 -123 -50 -169 -51 -574 0 -433 1 -427 -75 -440 -25
-4 -52 -18 -70 -37 -41 -41 -40 -93 5 -223 19 -56 44 -144 55 -198 29 -141 56
-243 110 -417 68 -220 73 -254 69 -480 -7 -363 0 -419 53 -484 37 -45 52 -37
68 37 18 80 24 390 11 616 -6 113 -7 209 -3 213 20 20 57 -39 131 -214 164
-383 208 -535 198 -687 -6 -100 -28 -160 -82 -220 -47 -52 -82 -73 -174 -106
-122 -44 -302 -125 -631 -285 -477 -231 -657 -307 -893 -379 -141 -43 -189
-70 -236 -136 -103 -144 -150 -338 -201 -840 -11 -110 -23 -210 -25 -223 -3
-12 -10 -82 -15 -155 -12 -162 -26 -259 -50 -357 -35 -139 -59 -284 -79 -465
-44 -395 -55 -547 -55 -755 -1 -195 1 -222 22 -295 26 -89 52 -138 109 -208
59 -71 116 -187 168 -342 42 -125 67 -181 178 -397 73 -141 31 -271 -107 -334
-28 -12 -87 -29 -131 -38 -94 -17 -232 -64 -445 -151 -85 -34 -201 -77 -257
-94 -57 -17 -149 -45 -205 -62 -56 -17 -208 -77 -337 -134 -293 -127 -349
-145 -586 -193 -142 -29 -200 -45 -230 -64 -74 -47 -191 -155 -255 -234 -68
-86 -90 -127 -90 -173 0 -16 -7 -63 -16 -103 -28 -134 -64 -361 -64 -410 0
-59 44 -230 69 -272 29 -47 71 -83 123 -106 94 -41 1402 -178 2193 -229 573
-37 750 -46 1230 -61 193 -5 447 -15 565 -20 274 -13 737 -13 1045 0 132 5
395 14 585 20 1613 50 3261 237 4615 524 66 14 123 26 126 26 13 0 67 137 84
213 17 72 17 91 6 215 -23 251 -45 342 -115 477 -44 87 -142 195 -230 254
-148 101 -348 173 -707 255 -134 30 -273 64 -309 75 -36 11 -103 31 -150 46
-47 14 -188 43 -315 65 -354 59 -485 109 -605 230 -94 93 -150 207 -199 401
-24 97 -16 148 45 324 150 426 149 420 148 725 -1 281 -34 621 -159 1625 -125
994 -145 1103 -240 1269 -85 149 -177 248 -309 334 -138 89 -257 129 -614 202
-392 81 -723 180 -809 242 -61 43 -126 140 -154 226 -33 102 -37 246 -10 352
21 85 90 239 118 262 24 20 30 -4 37 -150 8 -154 28 -264 58 -330 21 -45 61
-73 77 -56 14 14 30 177 41 419 18 397 27 464 115 790 86 319 114 444 122 540
7 98 -4 115 -72 115 -36 0 -44 4 -49 23 -9 34 -7 167 6 454 13 298 6 400 -39
512 -70 176 -230 343 -424 445 -110 57 -140 81 -193 150 -82 107 -109 185
-216 626 -32 135 -82 326 -110 425 -49 174 -132 430 -142 440 -3 3 -17 -43
-33 -102z m-1613 -7385 c62 -109 104 -199 151 -328 25 -69 82 -216 126 -328
119 -297 135 -361 135 -552 0 -175 -22 -319 -119 -800 -63 -306 -77 -360 -108
-396 -31 -36 -52 -24 -109 63 -212 323 -377 589 -415 670 -40 84 -46 104 -45
157 1 34 31 205 67 381 36 176 92 451 125 610 121 595 118 585 143 585 7 0 29
-28 49 -62z"/>
</g>
</svg>
